<svg width="100" height="100" viewBox="0 0 100 100" fill="none" xmlns="http://www.w3.org/2000/svg">
<circle cx="50" cy="50" r="48" stroke="black" stroke-width="4"/>
<path d="M28.3999 60.236H35.3119V80H41.3959V60.236H48.3439V54.8H28.3999V60.236ZM57.3995 68.588L64.4555 80H71.5835L63.6995 68.588H57.3995ZM51.0995 54.8V80H57.1835V54.8H51.0995ZM54.9155 59.948H59.8475C60.6635 59.948 61.3595 60.08 61.9355 60.344C62.5355 60.608 62.9915 60.992 63.3035 61.496C63.6155 61.976 63.7715 62.564 63.7715 63.26C63.7715 63.956 63.6155 64.556 63.3035 65.06C62.9915 65.54 62.5355 65.912 61.9355 66.176C61.3595 66.416 60.6635 66.536 59.8475 66.536H54.9155V71.252H60.2795C62.4395 71.252 64.2395 70.904 65.6795 70.208C67.1195 69.512 68.2115 68.552 68.9555 67.328C69.6995 66.08 70.0715 64.652 70.0715 63.044C70.0715 61.412 69.6995 59.984 68.9555 58.76C68.2115 57.512 67.1195 56.54 65.6795 55.844C64.2395 55.148 62.4395 54.8 60.2795 54.8H54.9155V59.948Z" fill="#252422"/>
<g clip-path="url(#clip0_2_17)">
<path d="M59.7068 11.8619H55.4829L47.7067 26.7958L41.6171 19.0218H38.3288L27 46.1381H55.967H62.8584H73.0001L59.7068 11.8619ZM57.2819 18.1777L59.2363 23.217H54.6578L57.2819 18.1777ZM44.1837 29.5099H38.8647L40.7148 25.0815L44.1837 29.5099ZM33.6704 41.9428L37.112 33.7051H46.5411L52.7863 41.9428H33.6704ZM59.5721 41.9428L50.7628 30.6971L52.4733 27.4123H60.8633L66.4986 41.9428H59.5721Z" fill="#EB5E28"/>
</g>
<defs>
<clipPath id="clip0_2_17">
<rect width="46" height="42" fill="white" transform="translate(27 8)"/>
</clipPath>
</defs>
</svg>
